<?xml version="1.0"?><svg xmlns="http://www.w3.org/2000/svg" width="24" height="24" viewBox="0 0 24 24" fill="none"><path d="M4 9.29999H3.25V10.8H4V9.29999ZM20 10.8H20.75V9.29999H20V10.8ZM10 14.25C9.58579 14.25 9.25 14.5858 9.25 15C9.25 15.4142 9.58579 15.75 10 15.75V14.25ZM14 15.75C14.4142 15.75 14.75 15.4142 14.75 15C14.75 14.5858 14.4142 14.25 14 14.25V15.75ZM11.25 17C11.25 17.4142 11.5858 17.75 12 17.75C12.4142 17.75 12.75 17.4142 12.75 17H11.25ZM12.75 13C12.75 12.5858 12.4142 12.25 12 12.25C11.5858 12.25 11.25 12.5858 11.25 13H12.75ZM11.25 7.04999C11.25 7.4642 11.5858 7.79999 12 7.79999C12.4142 7.79999 12.75 7.4642 12.75 7.04999H11.25ZM12.75 4.04999C12.75 3.63577 12.4142 3.29999 12 3.29999C11.5858 3.29999 11.25 3.63577 11.25 4.04999H12.75ZM6.25 7.04999C6.25 7.4642 6.58579 7.79999 7 7.79999C7.41421 7.79999 7.75 7.4642 7.75 7.04999L6.25 7.04999ZM7.75 4.04999C7.75 3.63577 7.41421 3.29999 7 3.29999C6.58579 3.29999 6.25 3.63577 6.25 4.04999L7.75 4.04999ZM16.25 7.04999C16.25 7.4642 16.5858 7.79999 17 7.79999C17.4142 7.79999 17.75 7.4642 17.75 7.04999H16.25ZM17.75 4.04999C17.75 3.63577 17.4142 3.29999 17 3.29999C16.5858 3.29999 16.25 3.63577 16.25 4.04999H17.75ZM5 6.79999H19V5.29999H5V6.79999ZM19.25 7.04999V19.05H20.75V7.04999H19.25ZM19 19.3H5V20.8H19V19.3ZM4.75 19.05V7.04999H3.25V19.05H4.75ZM5 19.3C4.86193 19.3 4.75 19.1881 4.75 19.05H3.25C3.25 20.0165 4.0335 20.8 5 20.8V19.3ZM19.25 19.05C19.25 19.1881 19.1381 19.3 19 19.3V20.8C19.9665 20.8 20.75 20.0165 20.75 19.05H19.25ZM19 6.79999C19.1381 6.79999 19.25 6.91192 19.25 7.04999H20.75C20.75 6.08349 19.9665 5.29999 19 5.29999V6.79999ZM5 5.29999C4.0335 5.29999 3.25 6.08349 3.25 7.04999H4.75C4.75 6.91192 4.86193 6.79999 5 6.79999V5.29999ZM4 10.8H20V9.29999H4V10.8ZM10 15.75H14V14.25H10V15.75ZM12.75 17V13H11.25V17H12.75ZM12.75 7.04999V4.04999H11.25V7.04999H12.75ZM7.75 7.04999L7.75 4.04999L6.25 4.04999L6.25 7.04999L7.75 7.04999ZM17.75 7.04999V4.04999H16.25V7.04999H17.75Z" fill="#383838"/></svg>