<svg width="390" height="196" viewBox="0 0 390 196" fill="none" xmlns="http://www.w3.org/2000/svg">
<path d="M5.632 100.736V11.136H46.336C56.064 11.136 64.64 13.0133 72.064 16.768C79.488 20.4373 85.2907 25.6 89.472 32.256C93.6533 38.912 95.744 46.8053 95.744 55.936C95.744 64.9813 93.6533 72.8747 89.472 79.616C85.2907 86.272 79.488 91.4773 72.064 95.232C64.64 98.9013 56.064 100.736 46.336 100.736H5.632ZM26.368 83.712H45.312C51.2853 83.712 56.448 82.6027 60.8 80.384C65.2373 78.08 68.6507 74.8373 71.04 70.656C73.5147 66.4747 74.752 61.568 74.752 55.936C74.752 50.2187 73.5147 45.312 71.04 41.216C68.6507 37.0347 65.2373 33.8347 60.8 31.616C56.448 29.312 51.2853 28.16 45.312 28.16H26.368V83.712ZM135.19 101.76C127.339 101.76 120.427 100.224 114.454 97.152C108.566 94.08 104.001 89.8987 100.758 84.608C97.5153 79.232 95.894 73.1307 95.894 66.304C95.894 59.392 97.4727 53.2907 100.63 48C103.873 42.624 108.267 38.4427 113.814 35.456C119.361 32.384 125.633 30.848 132.63 30.848C139.371 30.848 145.43 32.2987 150.806 35.2C156.267 38.016 160.577 42.112 163.734 47.488C166.891 52.7787 168.47 59.136 168.47 66.56C168.47 67.328 168.427 68.224 168.342 69.248C168.257 70.1867 168.171 71.0827 168.086 71.936H112.15V60.288H157.59L149.91 63.744C149.91 60.16 149.185 57.0453 147.734 54.4C146.283 51.7547 144.278 49.7067 141.718 48.256C139.158 46.72 136.171 45.952 132.758 45.952C129.345 45.952 126.315 46.72 123.67 48.256C121.11 49.7067 119.105 51.7973 117.654 54.528C116.203 57.1733 115.478 60.3307 115.478 64V67.072C115.478 70.8267 116.289 74.1547 117.91 77.056C119.617 79.872 121.963 82.048 124.95 83.584C128.022 85.0347 131.606 85.76 135.702 85.76C139.371 85.76 142.571 85.2053 145.302 84.096C148.118 82.9867 150.678 81.3227 152.982 79.104L163.606 90.624C160.449 94.208 156.481 96.9813 151.702 98.944C146.923 100.821 141.419 101.76 135.19 101.76ZM214.66 30.848C220.121 30.848 224.985 31.9573 229.252 34.176C233.604 36.3093 237.017 39.6373 239.492 44.16C241.967 48.5973 243.204 54.3147 243.204 61.312V100.736H223.236V64.384C223.236 58.8373 221.999 54.7413 219.524 52.096C217.135 49.4507 213.721 48.128 209.284 48.128C206.127 48.128 203.268 48.8107 200.708 50.176C198.233 51.456 196.271 53.4613 194.82 56.192C193.455 58.9227 192.772 62.4213 192.772 66.688V100.736H172.804V31.872H191.876V50.944L188.292 45.184C190.767 40.576 194.308 37.0347 198.916 34.56C203.524 32.0853 208.772 30.848 214.66 30.848ZM280.504 101.76C272.397 101.76 266.083 99.712 261.56 95.616C257.037 91.4347 254.776 85.248 254.776 77.056V16.64H274.744V76.8C274.744 79.7013 275.512 81.9627 277.048 83.584C278.584 85.12 280.675 85.888 283.32 85.888C286.477 85.888 289.165 85.0347 291.384 83.328L296.76 97.408C294.712 98.8587 292.237 99.968 289.336 100.736C286.52 101.419 283.576 101.76 280.504 101.76ZM244.152 48.768V33.408H291.896V48.768H244.152ZM299.009 100.736V31.872H318.977V100.736H299.009ZM308.993 22.272C305.324 22.272 302.337 21.2053 300.033 19.072C297.729 16.9387 296.577 14.2933 296.577 11.136C296.577 7.97867 297.729 5.33334 300.033 3.2C302.337 1.06667 305.324 0 308.993 0C312.662 0 315.649 1.024 317.953 3.07201C320.257 5.03467 321.409 7.59467 321.409 10.752C321.409 14.08 320.257 16.8533 317.953 19.072C315.734 21.2053 312.748 22.272 308.993 22.272ZM370.789 100.736V87.296L369.509 84.352V60.288C369.509 56.0213 368.186 52.6933 365.541 50.304C362.981 47.9147 359.013 46.72 353.637 46.72C349.968 46.72 346.341 47.3173 342.757 48.512C339.258 49.6213 336.272 51.1573 333.797 53.12L326.629 39.168C330.384 36.5227 334.906 34.4747 340.197 33.024C345.488 31.5733 350.864 30.848 356.325 30.848C366.821 30.848 374.97 33.3227 380.773 38.272C386.576 43.2213 389.477 50.944 389.477 61.44V100.736H370.789ZM349.797 101.76C344.421 101.76 339.813 100.864 335.973 99.072C332.133 97.1947 329.189 94.6773 327.141 91.52C325.093 88.3627 324.069 84.8213 324.069 80.896C324.069 76.8 325.05 73.216 327.013 70.144C329.061 67.072 332.261 64.6827 336.613 62.976C340.965 61.184 346.64 60.288 353.637 60.288H371.941V71.936H355.813C351.12 71.936 347.877 72.704 346.085 74.24C344.378 75.776 343.525 77.696 343.525 80C343.525 82.56 344.506 84.608 346.469 86.144C348.517 87.5947 351.29 88.32 354.789 88.32C358.117 88.32 361.104 87.552 363.749 86.016C366.394 84.3947 368.314 82.048 369.509 78.976L372.581 88.192C371.13 92.6293 368.485 96 364.645 98.304C360.805 100.608 355.856 101.76 349.797 101.76ZM48.512 195.272C41.6 195.272 35.1573 194.163 29.184 191.944C23.296 189.64 18.176 186.397 13.824 182.216C9.472 178.035 6.05867 173.128 3.584 167.496C1.19467 161.864 0 155.677 0 148.936C0 142.195 1.19467 136.008 3.584 130.376C6.05867 124.744 9.472 119.837 13.824 115.656C18.2613 111.475 23.424 108.275 29.312 106.056C35.2 103.752 41.6427 102.6 48.64 102.6C56.4053 102.6 63.4027 103.965 69.632 106.696C75.9467 109.341 81.2373 113.267 85.504 118.472L72.192 130.76C69.12 127.261 65.7067 124.659 61.952 122.952C58.1973 121.16 54.1013 120.264 49.664 120.264C45.4827 120.264 41.6427 120.947 38.144 122.312C34.6453 123.677 31.616 125.64 29.056 128.2C26.496 130.76 24.4907 133.789 23.04 137.288C21.6747 140.787 20.992 144.669 20.992 148.936C20.992 153.203 21.6747 157.085 23.04 160.584C24.4907 164.083 26.496 167.112 29.056 169.672C31.616 172.232 34.6453 174.195 38.144 175.56C41.6427 176.925 45.4827 177.608 49.664 177.608C54.1013 177.608 58.1973 176.755 61.952 175.048C65.7067 173.256 69.12 170.568 72.192 166.984L85.504 179.272C81.2373 184.477 75.9467 188.445 69.632 191.176C63.4027 193.907 56.3627 195.272 48.512 195.272ZM119.532 194.76C112.193 194.76 105.665 193.224 99.948 190.152C94.316 187.08 89.836 182.899 86.508 177.608C83.2653 172.232 81.644 166.131 81.644 159.304C81.644 152.392 83.2653 146.291 86.508 141C89.836 135.624 94.316 131.443 99.948 128.456C105.665 125.384 112.193 123.848 119.532 123.848C126.785 123.848 133.271 125.384 138.988 128.456C144.705 131.443 149.185 135.581 152.428 140.872C155.671 146.163 157.292 152.307 157.292 159.304C157.292 166.131 155.671 172.232 152.428 177.608C149.185 182.899 144.705 187.08 138.988 190.152C133.271 193.224 126.785 194.76 119.532 194.76ZM119.532 178.376C122.86 178.376 125.847 177.608 128.492 176.072C131.137 174.536 133.228 172.36 134.764 169.544C136.3 166.643 137.068 163.229 137.068 159.304C137.068 155.293 136.3 151.88 134.764 149.064C133.228 146.248 131.137 144.072 128.492 142.536C125.847 141 122.86 140.232 119.532 140.232C116.204 140.232 113.217 141 110.572 142.536C107.927 144.072 105.793 146.248 104.172 149.064C102.636 151.88 101.868 155.293 101.868 159.304C101.868 163.229 102.636 166.643 104.172 169.544C105.793 172.36 107.927 174.536 110.572 176.072C113.217 177.608 116.204 178.376 119.532 178.376ZM161.679 193.736V124.872H180.751V144.328L178.063 138.696C180.111 133.832 183.396 130.163 187.919 127.688C192.442 125.128 197.946 123.848 204.431 123.848V142.28C203.578 142.195 202.81 142.152 202.127 142.152C201.444 142.067 200.719 142.024 199.951 142.024C194.49 142.024 190.052 143.603 186.639 146.76C183.311 149.832 181.647 154.653 181.647 161.224V193.736H161.679ZM241.02 194.76C233.169 194.76 226.257 193.224 220.284 190.152C214.396 187.08 209.831 182.899 206.588 177.608C203.345 172.232 201.724 166.131 201.724 159.304C201.724 152.392 203.303 146.291 206.46 141C209.703 135.624 214.097 131.443 219.644 128.456C225.191 125.384 231.463 123.848 238.46 123.848C245.201 123.848 251.26 125.299 256.636 128.2C262.097 131.016 266.407 135.112 269.564 140.488C272.721 145.779 274.3 152.136 274.3 159.56C274.3 160.328 274.257 161.224 274.172 162.248C274.087 163.187 274.001 164.083 273.916 164.936H217.98V153.288H263.42L255.74 156.744C255.74 153.16 255.015 150.045 253.564 147.4C252.113 144.755 250.108 142.707 247.548 141.256C244.988 139.72 242.001 138.952 238.588 138.952C235.175 138.952 232.145 139.72 229.5 141.256C226.94 142.707 224.935 144.797 223.484 147.528C222.033 150.173 221.308 153.331 221.308 157V160.072C221.308 163.827 222.119 167.155 223.74 170.056C225.447 172.872 227.793 175.048 230.78 176.584C233.852 178.035 237.436 178.76 241.532 178.76C245.201 178.76 248.401 178.205 251.132 177.096C253.948 175.987 256.508 174.323 258.812 172.104L269.436 183.624C266.279 187.208 262.311 189.981 257.532 191.944C252.753 193.821 247.249 194.76 241.02 194.76ZM286.186 194.76C282.773 194.76 279.829 193.608 277.354 191.304C274.965 188.915 273.77 185.885 273.77 182.216C273.77 178.547 274.965 175.603 277.354 173.384C279.829 171.08 282.773 169.928 286.186 169.928C289.685 169.928 292.629 171.08 295.018 173.384C297.407 175.603 298.602 178.547 298.602 182.216C298.602 185.885 297.407 188.915 295.018 191.304C292.629 193.608 289.685 194.76 286.186 194.76Z" fill="black"/>
</svg>
